<svg xmlns="http://www.w3.org/2000/svg" viewBox="0 0 28.87 28.87"><g data-name="Layer 2"><g data-name="Layer 1"><rect width="18.87" height="18.87" fill="#2a5afc" rx="6.48" ry="6.48"/><path fill="#fff" fill-rule="evenodd" d="M6.46 19.61V9.27h5.08a3.93 3.93 0 011.6.32 2.34 2.34 0 011.44 1.91 2.88 2.88 0 01-.12 1.41 1.94 1.94 0 01-.91 1l-.2.11h.09a2.24 2.24 0 011.44 1.77 3.11 3.11 0 01-.25 2 2.88 2.88 0 01-2.21 1.64 7.85 7.85 0 01-1.32.11H6.46zm2.39-1.8h2.23a3.63 3.63 0 00.66-.07 1.16 1.16 0 001-.94 2.12 2.12 0 000-.58 1.09 1.09 0 00-.76-1 2.26 2.26 0 00-.75-.13H8.85zm0-4.47h2.25a2.06 2.06 0 001-.22.83.83 0 00.43-.54 1.58 1.58 0 000-.62.86.86 0 00-.66-.77 3.88 3.88 0 00-1-.13h-2zM23.08 16.13h-5.4v.32a2 2 0 00.17.6 1.58 1.58 0 001.19.88 2.23 2.23 0 00.9 0 1.42 1.42 0 001-.75.1.1 0 01.1-.06H23c0 .1 0 .2-.07.29a2.63 2.63 0 01-.59 1 3.33 3.33 0 01-2.09 1.1 4.53 4.53 0 01-1.93-.1 3.76 3.76 0 01-1.72-1 2.91 2.91 0 01-.72-1.44 5.57 5.57 0 01.12-2.88 3.23 3.23 0 012.67-2.34 4.27 4.27 0 012.45.24 3.1 3.1 0 011.6 1.54 3.64 3.64 0 01.34 1.47v1.11c.03-.02.03 0 .02.02zm-2-1.28v-.21a1.48 1.48 0 00-.94-1.2 1.9 1.9 0 00-.87-.12 1.44 1.44 0 00-1.31.9 3.75 3.75 0 00-.16.47 1.75 1.75 0 000 .19zM17.31 10.89v-1.2h4.16v1.19z"/></g></g></svg>